<svg width="120" height="42" viewBox="0 0 120 42" fill="none" xmlns="http://www.w3.org/2000/svg">
<g clip-path="url(#clip0_412_296)">
<path d="M28.0921 31.4669C24.1826 31.4669 21.1207 31.728 17.163 33.413C10.8828 36.0877 11.1067 41.1663 11.5237 41.6435C12.5527 41.8734 13.6203 41.9981 14.7169 41.9981H30.7215C31.0555 41.9981 31.3779 41.8637 31.6135 41.6241L41.6255 31.465H28.0921V31.4669Z" fill="#E50000"/>
<path d="M8.42319 35.4C8.59887 33.1188 10.3982 31.4688 10.3982 31.4688L40.5579 1.07532C40.9518 0.67987 40.6738 0 40.1178 0H21.864C21.1921 0 20.5454 0.268831 20.0705 0.75L4.31102 16.65C1.55027 19.4357 0 23.213 0 27.152C0 34.2292 4.95584 40.1571 11.5237 41.6474C9.25914 39.9078 8.25136 37.6383 8.42319 35.4Z" fill="#E50000"/>
<path d="M20.7211 26.252L25.924 21.002C25.924 21.002 25.9279 23.2422 24.4452 24.6682C22.9606 26.0942 21.4238 26.3007 20.7211 26.252Z" fill="#E50000"/>
<path d="M69.3644 28.0305V17.7896C68.9281 17.9961 68.5921 18.3564 68.3798 18.8318L64.9221 26.5324C64.5051 27.4616 63.6286 28.0324 62.6169 28.0324H60.6535C59.6419 28.0324 58.7654 27.4636 58.3484 26.5324L54.8907 18.8318C54.6783 18.3564 54.3424 17.9961 53.9061 17.7896V28.0305H50.3885V14.0435H52.8114C55.2131 14.1116 57.0781 15.0993 58.0955 17.3649L61.4663 24.8707C61.474 24.8863 61.4798 24.8902 61.4953 24.8902H61.7752C61.7926 24.8902 61.7984 24.8863 61.8042 24.8707L65.175 17.3649C66.1943 15.0935 68.0631 14.1116 70.4706 14.0435H70.4822H72.8819V28.0305H69.3624H69.3644Z" fill="#373737"/>
<path d="M120 14.0435V28.0305H116.482V14.0435H120Z" fill="#373737"/>
<path d="M110.196 14.0435H95.6282V24.8454L98.3271 28.0305H99.1457V17.1876H110.196C110.812 17.1876 111.316 17.6961 111.316 18.3175V19.6227C111.316 20.2441 110.812 20.7525 110.196 20.7525H100.787V23.9045H110.196C112.531 23.9045 114.44 21.9779 114.44 19.6227V18.3272C114.44 15.972 112.531 14.0454 110.196 14.0454V14.0435Z" fill="#373737"/>
<path d="M75.9689 28.0305V14.0435H81.5619C83.1971 14.0902 84.6161 14.7857 85.6779 16.0616L87.3903 18.1207L95.632 28.0305H91.0392L85.259 21.0779L82.9847 18.3428C82.5928 17.8733 82.1449 17.6357 81.5638 17.5967H79.4903V28.0305H75.9709H75.9689Z" fill="#373737"/>
<path d="M87.1934 26.3786L84.2203 22.8273H79.4286V26.3786H87.1934Z" fill="#373737"/>
</g>
<defs>
<clipPath id="clip0_412_296">
<rect width="120" height="42" fill="white"/>
</clipPath>
</defs>
</svg>
