<svg width="18" height="18" viewBox="0 0 18 18" fill="none" xmlns="http://www.w3.org/2000/svg">
<g id="Chart">
<path id="Chart_2" fill-rule="evenodd" clip-rule="evenodd" d="M5.1086 0.667H12.8911C15.7253 0.667 17.3253 2.2745 17.3336 5.10867V12.892C17.3336 15.7253 15.7253 17.3337 12.8911 17.3337H5.1086C2.27443 17.3337 0.666931 15.7253 0.666931 12.892V5.10867C0.666931 2.2745 2.27443 0.667 5.1086 0.667ZM9.04115 13.8837C9.40032 13.8837 9.69949 13.617 9.73282 13.2587V4.767C9.76615 4.50867 9.64199 4.2495 9.41699 4.10866C9.18282 3.967 8.89949 3.967 8.67532 4.10866C8.44949 4.2495 8.32532 4.50867 8.34949 4.767V13.2587C8.39199 13.617 8.69115 13.8837 9.04115 13.8837ZM12.8753 13.8837C13.2253 13.8837 13.5245 13.617 13.567 13.2587V10.5253C13.5912 10.2578 13.467 10.0087 13.2412 9.867C13.017 9.72534 12.7337 9.72534 12.5003 9.867C12.2745 10.0087 12.1503 10.2578 12.1837 10.5253V13.2587C12.217 13.617 12.5162 13.8837 12.8753 13.8837ZM5.84946 13.2587C5.81612 13.617 5.51696 13.8837 5.15779 13.8837C4.79946 13.8837 4.49946 13.617 4.46696 13.2587V7.50033C4.44196 7.24117 4.56612 6.98367 4.79196 6.842C5.01612 6.70033 5.30029 6.70033 5.52529 6.842C5.74946 6.98367 5.87529 7.24117 5.84946 7.50033V13.2587Z" fill="#282828"/>
</g>
</svg>
