<svg width="20" height="20" viewBox="0 0 20 20" fill="none" xmlns="http://www.w3.org/2000/svg">
<g id="Icon_Dashboard">
<path id="Vector" d="M0 2H1.66484V16.3023H20V17.9951H19.7534C13.514 17.9951 7.2745 17.9926 1.03747 18C0.522397 18 0.173319 17.8223 0.00244111 17.3239V2H0Z" fill="#282828"/>
<path id="Vector_2" d="M18.9953 15H15V14.7905C15 10.8353 15 6.88013 15 2.92258C15 2.32252 15.3091 2.00344 15.897 2.00106C16.6464 2.00106 17.3958 1.99868 18.1452 2.00106C18.6698 2.00106 19 2.33443 19 2.87019C19 6.86346 19 10.8567 19 14.8524C19 14.8952 18.9953 14.9381 18.993 14.9976L18.9953 15Z" fill="#282828"/>
<path id="Vector_3" d="M12.993 15H9C9 14.9267 9 14.8584 9 14.79C9 11.84 9 8.89011 9 5.94017C9 5.32479 9.31221 5 9.90376 5C10.6479 5 11.3944 5 12.1385 5C12.669 5 13 5.33455 13 5.884C13 8.87302 13 11.862 13 14.851C13 14.895 12.9953 14.939 12.9906 15H12.993Z" fill="#282828"/>
<path id="Vector_4" d="M3 15C3 14.9318 3 14.8746 3 14.8174C3 13.1694 3 11.5193 3 9.87129C3 9.29923 3.31579 9.0022 3.92164 9C4.64678 9 5.36959 9 6.09474 9C6.67953 9 7 9.29923 7 9.84708C7 11.5016 7 13.1562 7 14.8108C7 14.868 7 14.9274 7 14.9978H3V15Z" fill="#282828"/>
</g>
</svg>
