<svg width="20" height="20" viewBox="0 0 20 20" fill="none" xmlns="http://www.w3.org/2000/svg">
<path d="M16.5363 9.85137C16.0217 8.52034 15.1284 7.36927 13.9668 6.54041C12.8051 5.71155 11.4261 5.24125 10.0001 5.18762C8.57403 5.24125 7.19498 5.71155 6.03333 6.54041C4.87169 7.36927 3.97838 8.52034 3.46381 9.85137C3.42906 9.94749 3.42906 10.0528 3.46381 10.1489C3.97838 11.4799 4.87169 12.631 6.03333 13.4598C7.19498 14.2887 8.57403 14.759 10.0001 14.8126C11.4261 14.759 12.8051 14.2887 13.9668 13.4598C15.1284 12.631 16.0217 11.4799 16.5363 10.1489C16.5711 10.0528 16.5711 9.94749 16.5363 9.85137ZM10.0001 13.9376C7.68131 13.9376 5.23131 12.2182 4.34318 10.0001C5.23131 7.782 7.68131 6.06262 10.0001 6.06262C12.3188 6.06262 14.7688 7.782 15.6569 10.0001C14.7688 12.2182 12.3188 13.9376 10.0001 13.9376Z" fill="#89939E"/>
<path d="M10 7.37512C9.48082 7.37512 8.97331 7.52908 8.54163 7.81751C8.10995 8.10595 7.7735 8.51592 7.57482 8.99558C7.37614 9.47523 7.32415 10.003 7.42544 10.5122C7.52673 11.0214 7.77673 11.4892 8.14385 11.8563C8.51096 12.2234 8.97869 12.4734 9.48789 12.5747C9.99709 12.676 10.5249 12.624 11.0045 12.4253C11.4842 12.2266 11.8942 11.8902 12.1826 11.4585C12.471 11.0268 12.625 10.5193 12.625 10.0001C12.625 9.30393 12.3484 8.63625 11.8562 8.14397C11.3639 7.65168 10.6962 7.37512 10 7.37512ZM10 11.7501C9.65388 11.7501 9.31554 11.6475 9.02775 11.4552C8.73997 11.2629 8.51566 10.9896 8.38321 10.6698C8.25076 10.35 8.2161 9.99818 8.28363 9.65871C8.35115 9.31925 8.51782 9.00743 8.76256 8.76269C9.00731 8.51794 9.31913 8.35127 9.65859 8.28375C9.99806 8.21622 10.3499 8.25088 10.6697 8.38333C10.9895 8.51579 11.2628 8.74009 11.4551 9.02787C11.6474 9.31566 11.75 9.654 11.75 10.0001C11.75 10.4643 11.5656 10.9094 11.2374 11.2376C10.9092 11.5657 10.4641 11.7501 10 11.7501Z" fill="#89939E"/>
</svg>
