<svg width="20" height="20" viewBox="0 0 20 20" fill="none" xmlns="http://www.w3.org/2000/svg">
<g id="20/User interface/No-view/Inactive">
<path id="Vector" d="M5.29256 12.8482L5.91818 12.227C5.23315 11.6119 4.69492 10.8509 4.34318 10.0001C5.23131 7.782 7.68131 6.06262 10.0001 6.06262C10.5968 6.0705 11.1881 6.17693 11.7501 6.37762L12.4282 5.69512C11.6593 5.3702 10.8347 5.19784 10.0001 5.18762C8.57403 5.24125 7.19498 5.71155 6.03333 6.54041C4.87169 7.36927 3.97838 8.52034 3.46381 9.85137C3.42906 9.94749 3.42906 10.0528 3.46381 10.1489C3.85242 11.1801 4.479 12.1049 5.29256 12.8482Z" fill="#89939E"/>
<path id="Vector_2" d="M8.25 9.882C8.28042 9.46275 8.46074 9.06845 8.75797 8.77122C9.05521 8.47399 9.4495 8.29367 9.86875 8.26325L10.6606 7.467C10.2169 7.35016 9.75029 7.35168 9.30733 7.4714C8.86437 7.59112 8.46053 7.82486 8.13607 8.14932C7.81161 8.47378 7.57787 8.87762 7.45815 9.32058C7.33843 9.76354 7.33691 10.2301 7.45375 10.6739L8.25 9.882ZM16.5363 9.85137C16.0346 8.54465 15.1617 7.4132 14.025 6.59637L16.125 4.492L15.5081 3.87512L3.875 15.5082L4.49188 16.1251L6.72313 13.8939C7.71795 14.4775 8.84677 14.794 10 14.8126C11.426 14.759 12.8051 14.2887 13.9667 13.4598C15.1284 12.631 16.0217 11.4799 16.5363 10.1489C16.571 10.0528 16.571 9.94749 16.5363 9.85137ZM11.75 10.0001C11.7482 10.3064 11.666 10.6069 11.5116 10.8714C11.3573 11.136 11.1362 11.3554 10.8705 11.5078C10.6047 11.6601 10.3037 11.7401 9.99737 11.7396C9.69107 11.7391 9.39026 11.6583 9.125 11.5051L11.505 9.12512C11.6623 9.39013 11.7468 9.69197 11.75 10.0001ZM10 13.9376C9.08215 13.9216 8.1817 13.6845 7.375 13.2464L8.48625 12.1351C8.99171 12.4858 9.6043 12.6479 10.2171 12.593C10.8298 12.538 11.4038 12.2696 11.8388 11.8346C12.2739 11.3996 12.5423 10.8256 12.5972 10.2128C12.6521 9.60004 12.4901 8.98746 12.1394 8.482L13.395 7.22637C14.3989 7.91543 15.1839 8.87812 15.6569 10.0001C14.7688 12.2182 12.3188 13.9376 10 13.9376Z" fill="#89939E"/>
</g>
</svg>
