<svg width="20" height="20" viewBox="0 0 20 20" fill="none" xmlns="http://www.w3.org/2000/svg">
<path d="M10.5418 17.0001C10.8099 16.9108 11.0943 16.8527 11.3431 16.7261C11.9222 16.4314 12.277 15.9457 12.4435 15.3247C12.4482 15.3075 12.4474 15.2891 12.4504 15.2604H8.13312C8.18103 15.5244 8.28407 15.7649 8.43087 15.9857C8.79981 16.5404 9.315 16.8752 9.9817 16.9765C10.0033 16.9798 10.0235 16.9919 10.0443 16.9998H10.542L10.5418 17.0001Z" fill="#373737"/>
<path d="M10.2986 14.669C11.8973 14.669 13.4961 14.6699 15.0948 14.6685C15.6421 14.6679 16.0587 14.3587 16.164 13.861C16.2509 13.4501 16.1125 13.109 15.7917 12.8362C15.4028 12.5056 15.0932 12.1125 14.8583 11.6619C14.5569 11.0839 14.4201 10.4673 14.4193 9.81893C14.4184 9.25848 14.4259 8.69775 14.4154 8.1373C14.3791 6.21956 12.92 4.54971 11.0079 4.23498C10.9099 4.21881 10.8744 4.1895 10.8786 4.09007C10.8861 3.91722 10.8841 3.74383 10.8789 3.57071C10.8689 3.2472 10.6144 3.00095 10.2947 3.00012C9.97452 2.9993 9.71832 3.24446 9.70779 3.56824C9.70197 3.74575 9.70225 3.9238 9.70724 4.1013C9.70945 4.18567 9.68231 4.21553 9.59534 4.23361C7.8581 4.5919 6.74325 5.61638 6.28456 7.31252C6.19676 7.63766 6.18347 7.98719 6.17156 8.32658C6.14995 8.94565 6.18291 9.56719 6.1433 10.1849C6.07683 11.2228 5.6259 12.0909 4.84675 12.7874C4.61658 12.9932 4.43322 13.2178 4.40496 13.5328C4.34707 14.1735 4.80964 14.6655 5.47495 14.6685C6.30423 14.672 7.13352 14.6693 7.9628 14.6693C8.7414 14.6693 9.52 14.6693 10.2986 14.6693V14.669Z" fill="#373737"/>
<circle cx="13" cy="6.00012" r="3.6" fill="#E50000" stroke="white" stroke-width="1.2"/>
</svg>
