<svg width="13" height="14" viewBox="0 0 13 14" fill="none" xmlns="http://www.w3.org/2000/svg">
<g id="Notif">
<path id="Vector" d="M6.54175 14.0001C6.80987 13.9108 7.09433 13.8527 7.34306 13.7261C7.92223 13.4314 8.27705 12.9457 8.44351 12.3247C8.44822 12.3075 8.44739 12.2891 8.45044 12.2604H4.13312C4.18103 12.5244 4.28407 12.7649 4.43087 12.9857C4.79981 13.5404 5.315 13.8752 5.9817 13.9765C6.0033 13.9798 6.02352 13.9919 6.04429 13.9998H6.54203L6.54175 14.0001Z" fill="#373737"/>
<path id="Vector_2" d="M6.29859 11.669C7.89734 11.669 9.49608 11.6699 11.0948 11.6685C11.6421 11.6679 12.0587 11.3587 12.164 10.861C12.2509 10.4501 12.1125 10.109 11.7917 9.8362C11.4028 9.50558 11.0932 9.11249 10.8583 8.66189C10.5569 8.08391 10.4201 7.4673 10.4193 6.81893C10.4184 6.25848 10.4259 5.69775 10.4154 5.1373C10.3791 3.21956 8.91995 1.54971 7.00795 1.23498C6.90989 1.21881 6.87444 1.1895 6.87859 1.09007C6.88607 0.917223 6.88413 0.743829 6.87887 0.570709C6.8689 0.247204 6.61435 0.000945903 6.29472 0.00012413C5.97452 -0.000697643 5.71832 0.244465 5.70779 0.568243C5.70197 0.745746 5.70225 0.923797 5.70724 1.1013C5.70945 1.18567 5.68231 1.21553 5.59534 1.23361C3.8581 1.5919 2.74325 2.61638 2.28456 4.31252C2.19676 4.63766 2.18347 4.98719 2.17156 5.32658C2.14995 5.94565 2.18291 6.56719 2.1433 7.18489C2.07683 8.22279 1.6259 9.09085 0.84675 9.78744C0.616578 9.99316 0.433216 10.2178 0.404963 10.5328C0.347075 11.1735 0.809635 11.6655 1.47495 11.6685C2.30423 11.672 3.13352 11.6693 3.9628 11.6693C4.7414 11.6693 5.52 11.6693 6.29859 11.6693V11.669Z" fill="#373737"/>
</g>
</svg>
