<svg width="20" height="20" viewBox="0 0 20 20" fill="none" xmlns="http://www.w3.org/2000/svg">
<g id="20/User interface/settings/Black">
<path id="Settings" fill-rule="evenodd" clip-rule="evenodd" d="M11.8953 3.10652C11.6363 3.00012 11.3073 3.00012 10.65 3.00012C9.99276 3.00012 9.66447 3.00012 9.40477 3.10652C9.06 3.24807 8.78556 3.52076 8.64179 3.86462C8.576 4.02072 8.5508 4.20342 8.5403 4.46872C8.53563 4.66094 8.48201 4.8488 8.38451 5.01453C8.28702 5.18025 8.14886 5.31837 7.98311 5.41582C7.81424 5.50969 7.6244 5.55942 7.4312 5.5604C7.23799 5.56138 7.04766 5.51358 6.87784 5.42142C6.64125 5.29682 6.46975 5.22822 6.30036 5.20582C5.92976 5.15716 5.55493 5.25678 5.25739 5.48302C5.03479 5.65242 4.8703 5.93522 4.54201 6.50012C4.21302 7.06502 4.04922 7.34712 4.01212 7.62362C3.96312 7.99182 4.06392 8.36422 4.29211 8.65892C4.39571 8.79332 4.54201 8.90602 4.7681 9.04742C5.10199 9.25532 5.31618 9.60952 5.31618 10.0001C5.31618 10.3907 5.10199 10.7449 4.7688 10.9521C4.54201 11.0942 4.39571 11.2069 4.29141 11.3413C4.17877 11.4869 4.0961 11.6533 4.04816 11.831C4.00022 12.0087 3.98797 12.1942 4.01212 12.3766C4.04922 12.6524 4.21302 12.9352 4.54201 13.5001C4.871 14.065 5.03479 14.3471 5.25739 14.5172C5.55418 14.7433 5.92937 14.8427 6.30036 14.7944C6.46975 14.772 6.64125 14.7034 6.87784 14.5788C7.04775 14.4865 7.2382 14.4387 7.43155 14.4396C7.62489 14.4406 7.81485 14.4904 7.98381 14.5844C8.324 14.7804 8.5256 15.1409 8.5403 15.5315C8.5508 15.7975 8.576 15.9795 8.64179 16.1356C8.78459 16.4786 9.05898 16.7516 9.40477 16.8937C9.66377 17.0001 9.99276 17.0001 10.65 17.0001C11.3073 17.0001 11.6363 17.0001 11.8953 16.8937C12.2401 16.7522 12.5145 16.4795 12.6583 16.1356C12.7241 15.9795 12.7493 15.7975 12.7598 15.5315C12.7738 15.1409 12.9761 14.7797 13.317 14.5844C13.4858 14.4905 13.6757 14.4408 13.8689 14.4398C14.0621 14.4389 14.2524 14.4867 14.4222 14.5788C14.6588 14.7034 14.8303 14.772 14.9997 14.7944C15.3707 14.8434 15.7459 14.7433 16.0427 14.5172C16.2653 14.3478 16.4298 14.065 16.7581 13.5001C17.0871 12.9352 17.2509 12.6531 17.288 12.3766C17.312 12.1941 17.2996 12.0086 17.2516 11.8309C17.2035 11.6532 17.1207 11.4868 17.008 11.3413C16.9044 11.2069 16.7581 11.0942 16.532 10.9528C16.1981 10.7449 15.9839 10.3907 15.9839 10.0001C15.9839 9.60952 16.1981 9.25532 16.5313 9.04812C16.7581 8.90602 16.9044 8.79332 17.0087 8.65892C17.1213 8.51336 17.204 8.34692 17.2519 8.16922C17.2999 7.99152 17.3121 7.80608 17.288 7.62362C17.2509 7.34782 17.0871 7.06502 16.7581 6.50012C16.4291 5.93522 16.2653 5.65312 16.0427 5.48302C15.7451 5.25678 15.3703 5.15716 14.9997 5.20582C14.8303 5.22822 14.6588 5.29682 14.4222 5.42142C14.2523 5.5137 14.0619 5.56157 13.8685 5.56059C13.6752 5.55962 13.4852 5.50982 13.3163 5.41582C13.1506 5.31828 13.0126 5.18013 12.9153 5.01441C12.8179 4.84869 12.7644 4.66088 12.7598 4.46872C12.7493 4.20272 12.7241 4.02072 12.6583 3.86462C12.5871 3.69434 12.4831 3.53974 12.3522 3.40966C12.2213 3.27959 12.066 3.17658 11.8953 3.10652ZM10.65 12.1001C11.819 12.1001 12.7661 11.16 12.7661 10.0001C12.7661 8.84022 11.8183 7.90012 10.65 7.90012C9.48107 7.90012 8.534 8.84022 8.534 10.0001C8.534 11.16 9.48177 12.1001 10.65 12.1001Z" fill="#373737"/>
</g>
</svg>
