<svg width="42" height="42" viewBox="0 0 42 42" fill="none" xmlns="http://www.w3.org/2000/svg">
<g id="Isotype">
<path id="Vector" d="M28.092 31.4669C24.1825 31.4669 21.1206 31.7279 17.1629 33.413C10.8826 36.0877 11.1066 41.1662 11.5236 41.6435C12.5526 41.8734 13.6202 41.998 14.7168 41.998H30.7214C31.0554 41.998 31.3778 41.8636 31.6134 41.624L41.6254 31.4649H28.092V31.4669Z" fill="#E50000"/>
<path id="Vector_2" d="M8.42319 35.4C8.59887 33.1188 10.3982 31.4688 10.3982 31.4688L40.5579 1.07532C40.9518 0.67987 40.6738 0 40.1178 0H21.864C21.1921 0 20.5454 0.268831 20.0705 0.75L4.31102 16.65C1.55027 19.4357 0 23.213 0 27.152C0 34.2292 4.95584 40.1571 11.5237 41.6474C9.25914 39.9078 8.25136 37.6383 8.42319 35.4Z" fill="#E50000"/>
<path id="Vector_3" d="M20.7212 26.252L25.9241 21.002C25.9241 21.002 25.928 23.2422 24.4453 24.6682C22.9607 26.0942 21.4239 26.3007 20.7212 26.252Z" fill="#E50000"/>
</g>
</svg>
